name new_emg_signals
nRows=60
nColumns=7
 
endheader
time	RGLTMED	RRF	RADDLONG	RBF	RTA	RGM
0.0	0.4243380898923125	0.4844953026192504	0.1266935576827351	0.4008621185190061	0.0746649680653353	0.0592256073964492
0.009999999999999787	0.4443677092143641	0.4983589176722157	0.1100701009205028	0.4116226004996394	0.0588649772913773	0.0350203168729916
0.019999999999999574	0.4642287631251856	0.5121800026165383	0.093465893816483	0.4223610495114182	0.0429960437878668	0.0109149882820693
0.02999999999999936	0.4839056952134164	0.5259482490139411	0.0768893633488204	0.4330702143952709	0.0270645048049936	0.0130771897063971
0.03999999999999915	0.5033831188521501	0.5396533859430502	0.060348869723638	0.4437428969679593	0.0110767130071493	0.0369432008861426
0.049999999999998934	0.5226458430677958	0.5532851973788143	0.0438526956016376	0.4543719656639067	0.004960970205832	0.0606702196469075
0.05999999999999872	0.5416788982733307	0.5668335395728973	0.0274090355378822	0.4649503691394197	0.0210421812083584	0.0842456287536231
0.06999999999999851	0.5604675617976664	0.5802883583780254	0.0110259856578119	0.4754711497908875	0.0371605604705151	0.1076570367350807
0.0799999999999983	0.5789973831422763	0.5936397064593361	0.0052884664079626	0.4859274571378644	0.0533097586740832	0.1308922948455063
0.08999999999999808	0.5972542088952825	0.6068777603357991	0.0215264513080741	0.4963125610214234	0.0694834426072167	0.1539395135629958
0.09999999999999787	0.6152242072328119	0.6199928371946146	0.0376802274525837	0.5066198645677191	0.0856753008230747	0.1767870785887624
0.10999999999999766	0.6328938919364805	0.6329754114206694	0.0537421901721747	0.5168429168670963	0.1018790490487074	0.1994236663115287
0.11999999999999744	0.6502501458549488	0.6458161307822194	0.0697048805343483	0.5269754253198031	0.118088435331305	0.2218382587014378
0.12999999999999723	0.6672802437367903	0.6585058322131139	0.0855609937974788	0.5370112676004103	0.1342972449095978	0.2440201575986232
0.13999999999999702	0.6839718743617271	0.6710355571317054	0.1013033874845426	0.5469445031937056	0.1504993047985899	0.2659589983618055
0.1499999999999968	0.7003131618975579	0.6833965662366949	0.1169250890596494	0.5567693844553134	0.166688488076352	0.2876447628425103
0.1599999999999966	0.7162926864116113	0.6955803537199823	0.1324193031923385	0.566480367149612	0.1828587178623316	0.3090677916504397
0.16999999999999638	0.7318995034655739	0.7075786608362709	0.1477794185970198	0.5760721204168702	0.1990039709777152	0.3302187956755809
0.17999999999999616	0.747123162722633	0.7193834887685121	0.1629990144374313	0.5855395361210076	0.215118281280528	0.3510888668330231
0.18999999999999595	0.7619537254952246	0.7309871107278697	0.1780718662881871	0.5948777375294991	0.2311957426710029	0.3716694879973993
0.19999999999999574	0.7763817811612311	0.7423820832264006	0.1929919516471269	0.6040820872782513	0.247230511766225	0.39195254209464
0.20999999999999552	0.7903984623773191	0.7535612564604478	0.207753454993314	0.6131481945760562	0.2632168102457536	0.4119303203195444
0.2199999999999953	0.8039954590207594	0.7645177837426907	0.2223507723862968	0.6220719216042505	0.2791489268719716	0.4315955294482082
0.2299999999999951	0.8171650307980038	0.7752451299221005	0.2367785156026287	0.6308493890687077	0.2950212191901295	0.4509412982152325
0.239999999999994	0.8299000184711288	0.785737078737071	0.2510315158057348	0.6394769808647583	0.3108281149143926	0.4699611827276626
0.24999999999999467	0.84219385367132	0.7959877390618785	0.2651048267451554	0.6479513478238315	0.326564113007692	0.4886491708914107
0.25999999999999446	0.8540405672892523	0.8059915500316189	0.2789937274812278	0.6562694105245325	0.3422237844655779	0.506999685832191
0.26999999999999424	0.8654347964483312	0.8157432850602461	0.2926937246315912	0.6644283611667477	0.3578017728165013	0.5250075883011738
0.27999999999999403	0.8763717900758051	0.8252380547910082	0.3062005541364722	0.672425664520814	0.3732927943537534	0.5426681780643172
0.2899999999999938	0.8868474130892697	0.8344713090331437	0.3195101825405259	0.6802590579730409	0.388691638115722	0.5599771942822183
0.2999999999999936	0.896858149216522	0.843438837744214	0.3326188077897104	0.6879265506945045	0.4039931656322051	0.5769308148935095
0.3099999999999934	0.9064011024656417	0.8521367711180856	0.3455228595423861	0.6954264219638719	0.4191923104549163	0.5935256550195765
0.3199999999999932	0.9154739972638276	0.8605615788376211	0.3582189989946515	0.7027572186766842	0.43428407749019	0.609758764411999
0.3299999999999921	0.9240751772859108	0.8687100685500369	0.3707041182213526	0.7099177520748057	0.4492635421523497	0.6256276239676807
0.33999999999999275	0.9322036029976132	0.8765793836220489	0.3829753390362472	0.7169070937296191	0.4641258493565804	0.6411301413402299
0.34999999999999254	0.9398588479446812	0.884167000231334	0.3950300113773535	0.7237245708127851	0.4788662123716116	0.6562646456801986
0.3599999999999923	0.947041093825322	0.8914707238494076	0.4068657112265469	0.730369760688332	0.4934799115544205	0.6710298815401662
0.3699999999999921	0.9537511243896436	0.898488685169069	0.4184802380759567	0.7368424848605749	0.5079622929911812	0.6854250019830234
0.379999999999991	0.9599903182135644	0.9052193355275356	0.4298716119572586	0.7431428023138736	0.5223087670700817	0.6994495609334584
0.3899999999999917	0.9657606403957486	0.9116614418744724	0.4410380700532489	0.7492710022825947	0.536514807012565	0.7131035048135865
0.3999999999999915	0.9710646332247418	0.9178140813321868	0.4519780629141362	0.7552275964916447	0.5505759473897492	0.7263871635048007
0.40999999999999126	0.9759054058613116	0.9236766353938798	0.46269025030383	0.7610133109087455	0.5644877826509047	0.7393012406794336
0.41999999999999105	0.9802866230793617	0.9292487838040338	0.4731734967038229	0.7666290770494693	0.5782459656908611	0.7518468035480337
0.42999999999999083	0.9842124931075386	0.9345304981631456	0.4834268665038543	0.7720760228755861	0.5918462064835148	0.7640252720699645
0.4399999999999906	0.9876877546137466	0.9395220352964916	0.4934496189094439	0.7773554633267948	0.6052842708083851	0.7758384076757249
0.4499999999999904	0.9907176628758544	0.944223930423996	0.503241202596589	0.782468890525648	0.618555979096945	0.7872883015485658
0.4599999999999902	0.9933079751838684	0.948636990165777	0.5128012501433546	0.7874179636953429	0.6316572054244711	0.7983773625111612
0.4699999999999891	0.9954649355209472	0.9527622854158974	0.5221295722669889	0.7922044988297434	0.644583876672064	0.8091083045613431
0.47999999999998977	0.9971952585714108	0.9566011441146184	0.5312261518938369	0.7968304581559923	0.6573319718822339	0.8194841340997013
0.48999999999998956	0.9985061131049884	0.9601551439474554	0.5400911380879518	0.801297939431179	0.669897521829886	0.8295081368915712
0.49999999999998934	0.9994051047875192	0.9634261049966948	0.548724839862961	0.8056091651160665	0.6822766088288621	0.8391838648061423
0.5099999999999891	0.999900258468927	0.9664160823685868	0.5571277199004345	0.8097664714691629	0.6944653667922743	0.848515122375533
0.5199999999999889	1.0	0.969127358817132	0.5653003881967066	0.8137722976039572	0.7064599815630358	0.8575059532165278
0.5299999999999887	0.999713137628364	0.971562437384053	0.5732435956588398	0.8176291745506489	0.7182566915290508	0.8661606263564614
0.5399999999999885	0.9990488430237836	0.9737240340733868	0.5809582276693467	0.8213397143623129	0.7298517885359492	0.8744836225032239
0.5499999999999883	0.9980166319821973	0.9756150705784008	0.5884452976382322	0.8249065993043099	0.7412416191086091	0.8824796202972855
0.5599999999999881	0.9966263448570164	0.9772386670768672	0.5957059405601551	0.828332571164887	0.7524225859909713	0.8901534825816027
0.5699999999999878	0.9948881267650638	0.9785981351085712	0.6027414065941766	0.8316204207239538	0.7633911500122478	0.8975102427230048
0.5799999999999876	0.992812407612693	0.9796969705464992	0.609553054683881	0.8347729774161632	0.7741438322862195	0.9045550910173036
0.5899999999999874	0.990409881987588	0.9805388466703846	0.6161423462364028	0.8377930992227985	0.7846772167487971	0.9112933612086423
